<svg xmlns="http://www.w3.org/2000/svg" width="16.987" height="11.33" viewBox="0 0 16.987 11.33">
  <path id="Icon_ionic-ios-arrow-round-forward" data-name="Icon ionic-ios-arrow-round-forward" d="M18.708,11.469a.771.771,0,0,0-.006,1.086l3.587,3.593H8.636a.767.767,0,0,0,0,1.534H22.284L18.7,21.275a.777.777,0,0,0,.006,1.086.764.764,0,0,0,1.08-.006l4.862-4.9h0a.861.861,0,0,0,.159-.242.732.732,0,0,0,.059-.3.769.769,0,0,0-.218-.537l-4.862-4.9A.752.752,0,0,0,18.708,11.469Z" transform="translate(-7.875 -11.252)" fill="#fff"/>
</svg>
