<svg xmlns="http://www.w3.org/2000/svg" width="7.955" height="7.955" viewBox="0 0 7.955 7.955">
  <path id="Icon_awesome-phone-alt" data-name="Icon awesome-phone-alt" d="M7.728,5.621l-1.74-.746a.373.373,0,0,0-.435.107l-.771.942A5.759,5.759,0,0,1,2.029,3.172L2.971,2.4a.372.372,0,0,0,.107-.435L2.332.226A.375.375,0,0,0,1.9.01L.289.383A.373.373,0,0,0,0,.746,7.208,7.208,0,0,0,7.209,7.955a.373.373,0,0,0,.364-.289L7.945,6.05a.377.377,0,0,0-.218-.429Z" transform="translate(0 0)" fill="#fff"/>
</svg>
